<?xml version="1.0" standalone="no"?>
<!DOCTYPE svg PUBLIC "-//W3C//DTD SVG 1.1//EN" "http://www.w3.org/Graphics/SVG/1.1/DTD/svg11.dtd" >
<svg xmlns="http://www.w3.org/2000/svg">
<metadata></metadata>
<defs>
<font id="ocr-pbi-canoniquepbicanonique" horiz-adv-x="1339" >
<font-face units-per-em="2048" ascent="1638" descent="-410" />
<missing-glyph horiz-adv-x="500" />
<glyph horiz-adv-x="0" />
<glyph unicode="&#xd;" />
<glyph unicode=" " />
<glyph unicode="!" d="M549 0v63l4 9q16 24 47 34q10 2 69.5 2.5t69.5 -2.5q23 -8 35 -20q14 -12 16.5 -23.5t2.5 -62.5t-2.5 -62.5t-16.5 -23.5q-12 -12 -35 -20q-12 -4 -69.5 -4.5t-67.5 4.5q-33 8 -49 34l-4 11v61zM596 1071v414l4 8q16 25 47 35q27 6 54.5 -4.5t39.5 -30.5l7 -8v-414 q0 -410 -5 -422q-25 -49 -88 -39q-41 6 -57 39q-2 6 -2 422z" />
<glyph unicode="&#x22;" d="M401 1397l2 88l5 8q16 25 47 35q27 6 54.5 -4.5t39.5 -30.5l6 -8v-88q0 -74 -2 -88.5t-12 -26.5q-12 -16 -41 -22q-29 -8 -57.5 4t-36.5 36q-4 8 -5 97zM786 1397l2 88l5 8q16 25 47 35q27 6 54.5 -4.5t39.5 -30.5l6 -8v-88q0 -88 -4 -97q-8 -25 -37 -37t-57 -3 q-29 6 -41 22q-10 12 -12.5 26.5t-2.5 88.5z" />
<glyph unicode="#" d="M186 518q0 20 17 37q23 25 80 25h32q0 2 44 198.5t47 198.5q0 4 -62 4q-72 2 -92 16q-27 16 -27 45t27 45q23 14 106 17h76l41 190q45 199 47 201q15 27 49.5 37t66.5 -8.5t32 -46.5q0 -10 -39 -187q-37 -176 -41 -180v-6h153q156 0 156 4l6 22q6 25 17.5 77.5t21.5 92.5 q39 180 45 197q23 47 86 37q27 -4 44.5 -20.5t17.5 -38.5q0 -6 -41 -191l-41 -178l22 -2q29 -4 33 -6q45 -16 45 -55t-45 -56q-8 -4 -47 -6h-35l-45 -195q-41 -193 -45 -200v-6h55q66 0 88 -13q33 -18 33 -49t-33 -49q-18 -12 -102 -12h-70l-2 -15q-2 -8 -45 -196 q-41 -182 -47 -195q-14 -31 -57 -36t-70 20q-18 23 -18 39q0 6 40 184t44 195q0 4 -156 4h-154l-45 -199q-35 -158 -43 -185.5t-18 -37.5q-49 -39 -102 -8q-33 18 -33 47q0 4 41 194l43 187q0 2 -19 2q-41 0 -63 22q-18 16 -19 39zM471 584q0 -4 156 -4h155l43 198l45 201 q0 2 -153 2h-156v-4l-6 -27q-6 -25 -17.5 -76t-21.5 -94q-10 -41 -21.5 -94t-17.5 -78z" />
<glyph unicode="$" d="M188 362q0 16 7 27q16 27 53 33t65 -14q16 -12 29 -43q29 -55 80 -81t149 -32h23v250v252l-35 10q-186 55 -272 125q-100 78 -97 211q6 129 103.5 213t261.5 106q25 0 33 4h6v31q0 27 6 39q16 25 47 35q27 6 54.5 -4.5t39.5 -30.5q6 -12 7 -41v-31h8q31 0 84 -14 q96 -25 176 -88q25 -18 52.5 -50t35.5 -50q10 -18 -2 -43q-14 -23 -43 -32t-58 1q-23 6 -40 31q-61 80 -144 106q-33 16 -67 16q-2 0 -2 -229l2 -227l6 -2q2 0 8 -3t17.5 -6.5t21.5 -7.5q221 -72 299 -180q98 -141 22 -299q-78 -150 -272 -197q-27 -8 -92 -18h-12v-29 q0 -47 -27 -63q-16 -14 -49 -14q-35 0 -51 14q-27 16 -27 63v27h-10q-2 0 -6.5 1t-10.5 2t-10 1q-98 6 -166 29q-137 43 -194 166q-8 18 -9 36zM350 1137q-23 -100 39 -158q45 -37 121 -66q72 -29 82 -28q2 0 2 207v206h-6q-6 0 -68 -12q-90 -23 -135 -78q-23 -25 -35 -71z M748 252l18 4q121 18 180 82q45 51 53.5 114.5t-24.5 118.5q-16 29 -62 62q-59 36 -137 67l-26 9q-2 0 -2 -228v-229z" />
<glyph unicode="%" d="M186 90l2 16l410 693q416 696 420 700q17 17 33 21q18 6 49 2q43 -10 53 -45q4 -23 -4 -35q-6 -10 -412.5 -697.5t-410.5 -691.5q-16 -23 -54.5 -25.5t-62.5 17.5q-23 16 -23 45zM188 1286q0 61 15 100q45 128 190 148q33 6 92 -4q123 -33 164 -144q14 -39 15 -100 q0 -45 -5 -65q-20 -102 -100 -154q-59 -39 -134 -39t-132 39q-80 51 -100 154q-4 20 -5 65zM342 1286q0 -37 4 -51q12 -57 49 -76q12 -6 31 -6q29 0 47 16q43 39 39 127q-2 35 -14 68q-16 29 -41 41q-29 14 -57.5 2t-45.5 -45q-12 -29 -12 -76zM678 272q0 61 14 101 q46 127 191 147q33 6 92 -4q123 -33 164 -143q14 -39 14 -101q0 -45 -4 -65q-20 -102 -100 -154q-57 -39 -133 -39t-134 39q-80 51 -100 154q-4 20 -4 65zM831 272q0 -37 5 -51q12 -57 49 -76q12 -6 30 -6q29 0 48 17q43 39 38 127q-2 35 -14 67q-16 29 -41 41 q-29 14 -57.5 2t-44.5 -45q-12 -29 -13 -76z" />
<glyph unicode="&#x26;" d="M188 424q0 53 5 80q10 55 28 92q39 94 156 201l26 22l-10 17q-143 199 -149 350q-4 147 84.5 241.5t244.5 106.5l17 2h31q238 4 327 -160q27 -53 27 -106q0 -109 -96 -228q-61 -76 -232 -202l-51 -39l4 -6q127 -174 279 -383l57 -80l8 18q51 111 57 252q0 49 20.5 67.5 t57.5 18.5t58 -20q18 -16 18 -72q-6 -127 -41 -227q-29 -78 -72 -140l-14 -24q0 -2 33 -49q31 -41 37 -54q8 -20 2 -36q-8 -25 -39 -39q-41 -14 -74 2q-18 10 -43 43q-4 6 -10 14t-8 12l-4 4q-8 -4 -17 -10q-125 -80 -301 -78q-111 2 -186 35q-170 66 -217 258 q-12 45 -13 117zM344 358q31 -168 160 -204q41 -14 119 -15q53 0 77 4q57 16 84 31q49 27 56 37q2 2 -5.5 14.5t-50.5 69.5q-186 262 -241 336l-58 76q-4 2 -37.5 -35t-52.5 -64q-37 -53 -51 -121q-8 -68 0 -129zM398 1198q1 -39 5 -59q18 -80 62 -152q41 -68 51 -78 q25 16 51 37q106 82 153.5 131t76.5 107q37 78 12 137q-33 70 -121 88q-63 6 -110 2q-145 -14 -177 -156q-4 -18 -3 -57z" />
<glyph unicode="(" d="M480.5 843q13.5 177 76.5 310q45 92 130 189.5t183 166.5q25 19 48 25q43 10 77 -21q25 -23 19 -49q-6 -20 -37 -45q-137 -98 -225 -223q-127 -180 -121 -459q6 -147 47 -245q78 -201 291 -357q39 -29 45 -47q10 -49 -45 -70q-10 -4 -30.5 -3t-31.5 5q-55 18 -174 138 q-172 170 -223 358q-43 150 -29.5 327z" />
<glyph unicode=")" d="M330 98q8 14 35 33q217 150 301 363q45 111 45 268q0 248 -107 412q-84 127 -225 235q-43 31 -49 45q-10 23 4 46.5t45 31.5q37 10 78 -14q96 -66 188 -168q145 -160 193 -346q29 -125 26 -267q-6 -197 -82 -348q-106 -205 -315 -348q-33 -25 -59 -27q-41 -2 -67 25 t-11 59z" />
<glyph unicode="*" d="M186 909q0 20 17 37q29 33 73 23q4 0 166 -51l152 -52v187q0 180 4 192q18 33 59 39q51 8 78 -27q4 -4 8 -12q4 -12 5 -192l2 -187l153 52q135 45 168 53q33 2 58.5 -16.5t25.5 -45.5q0 -33 -35 -51q-2 0 -23.5 -8t-58.5 -20.5t-71 -24.5l-144 -45l4 -6q2 -6 95 -162 q90 -162 92 -166q10 -53 -51 -70q-51 -14 -84 19q-10 16 -93 155q-20 33 -42.5 72t-34.5 60l-11 20l-4 6l-114 -156q-117 -158 -125 -163q-31 -20 -70 -13.5t-53 35.5q-12 23 -2 43q6 14 114 158q31 39 57.5 76t41 57t12.5 20q-74 27 -164 56q-162 51 -174 59q-31 18 -31 49 z" />
<glyph unicode="+" d="M188 754q-4 20 0 41q12 25 33 30q20 10 201 11h172v211l2 210l4 9q16 24 47 34q31 4 55 -2q33 -14 43 -41q2 -6 3 -215v-206h176h176l10 -7q31 -12 41 -36.5t-6 -49.5q-12 -16 -35 -24l-10 -4l-176 -2h-176v-209v-209l-7 -10q-12 -20 -36 -31q-33 -14 -68 0 q-25 10 -37 31l-4 10l-2 209v209h-172q-180 0 -201 10q-20 6 -33 31z" />
<glyph unicode="," d="M281 -258q2 2 89 150.5t175 299t94 158.5q10 17 37 27q10 4 147 4h135l11 -6q23 -10 35 -31q6 -12 6 -51q0 -53 -9 -66q-2 0 -30.5 -30.5t-89 -92t-111.5 -114.5q-303 -309 -311 -314q-20 -12 -74 -12q-51 0 -74 12q-20 8 -28.5 29t-1.5 37zM629 47l53 53q14 14 51 52.5 t51 52.5l52 53h-41h-41l-64 -106z" />
<glyph unicode="-" d="M184 775q0 42 4 50q15 29 52 39q8 2 430 2q338 0 387 -1t65 -11q18 -10 29 -29q4 -12 4 -49q0 -39 -4 -51q-10 -18 -29 -29q-16 -10 -65 -11t-387 -1q-332 0 -382 1t-67 9q-20 6 -33 31q-4 8 -4 50z" />
<glyph unicode="." d="M449 180q0 94 2 108.5t14 28.5q10 13 37 23q6 2 168 2q168 0 188 -10q20 -12 31 -29q4 -16 4 -123v-112l-6 -11q-18 -29 -51 -34q-6 -2 -172 -3l-160 3l-12 4q-27 10 -39 32q-4 10 -4 121zM602 143h70h67v39v37h-67h-70v-37v-39z" />
<glyph unicode="/" d="M309 75.5q0 14.5 287 717.5q70 168 143.5 347t111.5 271t38 94q16 21 43 27q39 10 71.5 -9.5t28.5 -52.5q-6 -25 -284 -704q-59 -147 -138.5 -338.5t-115 -279t-35.5 -89.5q-6 -14 -17 -24q-27 -25 -68.5 -20t-58.5 36q-6 10 -6 24.5z" />
<glyph unicode="0" d="M188 760q0 231 15 336q45 332 268 413q51 18 88 23q11 2 27 2q2 2 94 2q100 -2 108 -4q254 -43 330 -326q25 -100 33 -250q4 -45 4 -199.5t-4 -187.5q-27 -358 -201 -487q-51 -35 -100 -47q-61 -20 -178 -21q-119 0 -180 21q-53 14 -99 47q-160 117 -196 420 q-10 90 -9 258zM340 713q2 -174 18 -256q37 -231 160 -295q47 -25 152 -25q106 0 153 25q123 63 160 295q16 82 18 256q2 367 -47 510q-20 55 -41 88q-59 88 -159 100q-16 2 -84 2t-84 -2q-37 -4 -72 -22q-117 -59 -152 -269q-25 -139 -22 -407z" />
<glyph unicode="1" d="M256 1127.5q-18 29.5 4 58.5q6 8 194.5 169t196.5 165q7 2 19 8h18q18 2 37 2q47 0 72 -8q18 -8 32 -31l5 -10v-705q0 -705 -3 -710q-16 -41 -67 -46q-55 -4 -78 37l-4 11l-2 649v649l-152 -129q-141 -125 -159 -133q-25 -14 -52 -10q-43 4 -61 33.5z" />
<glyph unicode="2" d="M225 1348q-14 35 13 61q29 25 94 55q119 62 266 70q23 2 75 1t68 -3q137 -23 230.5 -103.5t120.5 -199.5q47 -205 -123 -383q-59 -61 -240 -178q-12 -8 -28.5 -19.5t-31 -21t-18.5 -11.5q-133 -94 -194 -184q-23 -37 -41 -88q-18 -55 -19 -151v-27h326q326 0 336 -4 q39 -8 51 -38t-10 -54q-18 -18 -43 -25q-8 -2 -383 -2l-373 2l-12 4q-27 10 -37 31l-6 12v84q0 131 24 205q41 129 170 242q66 57 209 151q82 51 142 96q123 98 153 224q4 18 3 53t-5 55q-23 96 -90 148q-53 43 -123 57q-18 4 -76 4q-74 0 -125 -10q-90 -16 -168 -70 q-37 -23 -67 -22q-23 2 -33 8q-25 8 -35 31z" />
<glyph unicode="3" d="M186 139q0 37 41 56q10 4 35 4h25l24 -11q133 -55 289 -51q260 10 348 191q63 131 21 262q-10 35 -35 74q-98 143 -373 159q-43 2 -59 11q-23 10 -31 28q-12 23 0 47q2 2 225 242l224 233h-336q-334 0 -348 7q-31 12 -41.5 36.5t6.5 49.5q25 25 32 24q7 2 13 2q8 4 391 4 q309 0 355 -1t63 -11q20 -14 28 -35q2 -6 2 -55q0 -41 -6 -53q-4 -6 -198 -213l-195 -203l8 -2q8 -2 101 -25q162 -49 252 -157q98 -123 92 -281q-6 -166 -109.5 -281.5t-279.5 -156.5q-248 -55 -500 43q-33 12 -49 26q-14 16 -15 37z" />
<glyph unicode="4" d="M186 481q0 53 4 62q4 10 219.5 470t223.5 474q14 29 49 41q27 8 55 -4q49 -16 45 -62q-8 -27 -223 -479q-219 -471 -219 -479v-6h225h226v145q0 143 6 156q12 20 34 30q16 6 37 6.5t35 -6.5q23 -10 35 -30q6 -12 6 -156v-145h78q78 -2 88 -6q31 -12 41 -37t-6 -49 q-12 -16 -35 -25q-10 -4 -88 -6h-78v-152q0 -152 -2 -157q-10 -27 -43 -41q-31 -8 -63 0q-33 14 -43 41q-2 6 -2 157v152h-269q-217 0 -251.5 1t-51.5 11q-12 4 -18 14q-14 16 -15 80z" />
<glyph unicode="5" d="M238 75.5q0 39.5 45 55.5q6 4 36 6q180 6 271 29q248 68 315 268q18 61 13 137q-12 137 -84 209q-113 117 -410 101q-80 -4 -96 0q-37 14 -47 45q-2 8 12 262q14 262 16 264q4 41 51 51q12 4 323.5 5t324.5 -3q27 -10 39 -24q20 -20 12 -51q-4 -20 -33 -35 q-16 -8 -50 -9.5t-249 -1.5h-268v-6q-2 -6 -10 -174q-12 -182 -13 -184v-14h66q117 -2 211 -25q174 -41 264 -150q61 -74 84 -182q10 -57 10 -119q0 -70 -16 -118q-31 -104 -112 -189.5t-193 -132.5q-143 -66 -351 -74q-92 -6 -116 4q-45 16 -45 55.5z" />
<glyph unicode="6" d="M186 479q0 139 27 240.5t96 220.5q135 227 391 504q74 76 99 84q2 0 11 1t15 1q33 -2 52.5 -19.5t19.5 -42.5q0 -23 -35 -57q-193 -201 -330 -393q-63 -88 -63 -98q2 0 4 2q6 0 10 2q90 33 205 28q117 -2 213 -45q31 -12 68 -37q80 -51 125 -131q66 -111 61 -284 q-2 -109 -45 -193q-104 -213 -367 -244q-23 -2 -74 -2t-71 2q-111 12 -201 64q-211 127 -211 397zM340 494q-2 -109 35 -187q49 -109 168 -151q70 -23 151.5 -18t141.5 34q88 45 131 135q37 78 34 185q-6 133 -57 210q-31 43 -67 70q-68 45 -164 55q-92 10 -168 -16 q-45 -14 -84 -45q-88 -74 -117 -215q0 -16 -4 -57z" />
<glyph unicode="7" d="M188 1425q-4 20 0 41q15 29 52 39q8 2 430 2q338 0 387 -1t65 -11q18 -10 29 -29q16 -31 -10 -123q-20 -88 -88 -190q-39 -57 -146 -192q-164 -203 -215 -328q-88 -205 -96 -512q-2 -55 -6 -64q-23 -41 -78 -37q-39 4 -59 31q-10 14 -11 82q8 401 170 672q53 86 162 217 q96 119 150 201q49 78 65 139q4 16 6 18q0 4 -372 4q-295 0 -340 1t-62 10q-20 6 -33 30z" />
<glyph unicode="8" d="M186 397q-4 119 70 232q84 123 242 221l26 16l-14 6q-61 31 -113 72q-102 84 -131 197q-39 152 70 270q100 105 280 123q70 4 140 -4q205 -33 291 -172q49 -84 34 -178q-25 -190 -239 -299l-27 -15l23 -14q170 -104 249 -229q33 -53 48 -97q18 -53 20 -106 q4 -123 -69.5 -224.5t-202.5 -150.5q-92 -31 -221 -31q-92 0 -166 23q-135 41 -220.5 138t-89.5 222zM340 420q-4 -84 47 -156q29 -41 68 -65q70 -51 168 -62q18 -2 63 0t66 4q133 20 204 123q74 106 31 225q-10 33 -33 72q-70 111 -217 197q-43 25 -47 26l-20 13l-21 -13 q-113 -59 -192 -137q-61 -61 -86 -117q-29 -55 -31 -110zM412 1196q14 -90 75 -149q37 -35 136 -84l47 -23l47 23q102 51 143 92q70 70 70 168q0 29 -6 45q-4 18 -13 30q-51 89 -172 109q-55 8 -110 4q-88 -8 -150 -57q-80 -61 -67 -158z" />
<glyph unicode="9" d="M199 946q-45 201 67 371q125 190 348 215q82 10 162 -6q143 -29 240.5 -120t124.5 -222q12 -55 14 -115q2 -129 -43 -266q-55 -164 -192 -367q-143 -217 -332 -385q-39 -33 -76 -31q-31 2 -53 23q-16 18 -17 41q0 20 47 66q217 201 365 452l10 19l-10 -5 q-57 -14 -160 -18q-156 -2 -266 49q-86 39 -146.5 120t-82.5 179zM348 973q21 -101 88 -168q78 -78 217 -84q106 -4 178 20q102 33 144 136q35 92 24 221q-12 141 -92 221q-66 65 -166 88q-61 12 -112 4q-131 -18 -219 -139q-35 -47 -50 -98q-33 -100 -12 -201z" />
<glyph unicode=":" d="M485 66v98v100l4 8q15 25 48 33q6 2 137 2h129l10 -6q25 -8 39 -33l6 -14v-94v-92l-6 -11q-18 -29 -51 -34q-6 -2 -137 -3l-125 3l-13 4q-20 8 -37 28zM485 805v98v101l4 8q15 24 48 32q10 4 133 4.5t133 -4.5q27 -10 37 -20q14 -14 16 -27.5t2 -93.5t-2 -93t-16 -28 q-10 -10 -37 -20q-12 -4 -133 -4t-131 4q-31 8 -50 33zM637 143h35h33v21v20h-33h-35v-20v-21zM637 883h35h33v20v21h-33h-35v-21v-20z" />
<glyph unicode=";" d="M274 -252q2 8 129 268t134 269q7 10 34 22q10 4 141.5 4t143.5 -4q33 -10 44 -36.5t-5 -49.5q-12 -16 -203 -266q-184 -244 -203 -262q-6 -4 -20 -10q-10 -4 -72 -7q-61 0 -73 5q-59 18 -50 67zM524 903q0 80 2 93.5t15 25.5q10 12 37 22q10 4 131.5 4.5t134.5 -4.5 q27 -10 37 -20q14 -14 15 -25.5t3 -91.5q0 -94 -2 -100q-10 -33 -51 -43q-12 -4 -134 -5t-132 3q-25 8 -37 20q-14 12 -16.5 26.5t-2.5 94.5zM590 57q16 20 35 45q6 8 18 23.5t19.5 26t11.5 16.5l16 20h-18h-19l-28 -59zM678 883h35h32v20v21h-32h-35v-21v-20z" />
<glyph unicode="&#x3c;" d="M186.5 774q-0.5 23 16.5 39q4 4 417.5 279.5t419.5 277.5q2 2 7.5 4t7.5 2q23 4 47 0q51 -16 51 -59q0 -23 -16 -39q-4 -4 -379 -254l-373 -248q-2 0 48 -33.5t139.5 -93t187.5 -125.5q375 -250 381 -256q31 -39 -2 -71q-37 -37 -90 -21q-14 6 -426 279q-94 63 -204 136 t-162 108.5t-54 35.5q-16 16 -16.5 39z" />
<glyph unicode="=" d="M186 542.5q0 20.5 17 37.5q10 12 37 22q8 2 434 2h426l10 -6q31 -12 41 -36.5t-6 -49.5q-12 -16 -35 -25l-10 -4l-422 -2q-426 0 -434 2q-25 6 -41.5 22.5t-16.5 37zM186 1007.5q0 20.5 17 36.5q10 13 37 23q8 2 434 2h426l10 -6q31 -12 41 -37t-6 -49q-12 -16 -35 -25 l-10 -4l-422 -2q-426 0 -434 2q-25 6 -41.5 22.5t-16.5 37z" />
<glyph unicode="&#x3e;" d="M186 233q0 18 17 39l22 15q20 14 56 38.5t81.5 54.5t105.5 69.5t118 78.5l372 248q-39 25 -755 502l-13 18q-12 20 0 43q13 29 48 35q31 8 57 -2q8 -4 421.5 -277.5t420.5 -281.5q16 -16 16 -37q0 -23 -16 -39q-8 -8 -419 -280.5t-421 -278.5q-45 -18 -84 8 q-27 18 -27 47z" />
<glyph unicode="?" d="M244 1075q-2 76 31.5 145.5t97.5 114.5q88 66 217 82q20 2 64 1t65 -5q133 -18 219 -98q104 -94 100 -228q-2 -66 -53 -165q-59 -121 -135 -185q-74 -61 -88 -90q-12 -25 -14 -49q0 -8 -7 -27q-12 -31 -55 -36q-63 -10 -88 38q-2 6 -2 31q0 98 125 203q70 57 119 156 q47 92 45 141q-4 33 -15 59q-25 68 -92 103q-51 29 -131 28q-43 0 -61 -4q-129 -25 -172 -125q-14 -35 -17 -82q-2 -41 -20 -57q-20 -18 -55 -18q-37 0 -58 18q-18 16 -20 49zM549 12q0 61 4 70q14 27 45 35q4 2 76 2h67l11 -6q23 -10 36 -33q4 -8 5 -68q0 -51 -2.5 -62 t-16.5 -24q-12 -12 -35 -20q-12 -4 -69.5 -4t-69.5 4q-31 10 -47 35l-4 10v61z" />
<glyph unicode="@" d="M184 410q4 170 31 252q47 137 201 155q51 4 88 -2q59 -12 117 -45q20 -12 20 -4q0 12 18 27q29 25 69 19.5t58 -36.5l7 -8v-262q0 -252 4 -277q12 -80 49 -100q45 -20 96 31q33 33 47 92q12 53 12 311q0 252 -10 355q-18 168 -80 264q-78 115 -241 121q-150 4 -236 -56 q-29 -20 -53 -53q-31 -43 -37 -98q-4 -18 -25 -33q-23 -16 -52 -16t-52 16q-29 23 -22 57q27 154 165 236q88 53 217 65q13 2 29 2q14 2 63.5 1t67.5 -3q186 -29 285 -145q96 -119 121 -328q14 -117 14 -422q-2 -233 -12 -282q-8 -47 -29 -88q-55 -109 -162 -140 q-37 -12 -84 -12q-39 0 -57 4q-37 10 -70 31q-29 18 -43 41l-6 8l-14 -12q-57 -49 -141 -68q-18 -4 -62 -4q-82 0 -137 27q-160 78 -154 379zM342 494q-20 -262 49 -338q39 -43 113 -29q74 16 127 121l8 18v142v141l-8 16q-48 92 -142 125q-45 10 -61 4q-27 -8 -41 -24 q-31 -33 -45 -176z" />
<glyph unicode="A" d="M199 82q0 14 163.5 646t169.5 640q8 17 37 29q18 4 32.5 4t25.5 -4q25 -6 37 -23l8 -8l2 6q14 18 37 25q17 6 32 6q18 0 33 -8q23 -10 35 -31q4 -10 168 -643t164 -641q0 -39 -43 -53q-8 -4 -31 -4h-7q-28 0 -48 14q-14 10 -22.5 35.5t-47.5 181.5l-51 192h-223h-224 q0 -4 -50 -193.5t-52 -195.5q-14 -25 -37 -30q-17 -7 -34 -7q-19 0 -39 10q-36 19 -35 52zM479 569h191h192l-94 363l-98 373v-2q-2 -2 -96.5 -367t-94.5 -367z" />
<glyph unicode="B" d="M186 92v625q0 627 2 633q15 29 52 39q10 2 228 2t243 -2q135 -16 229 -113q72 -74 92 -172q7 -34 6 -67q0 -63 -24 -126q-27 -74 -86 -127l-15 -12l23 -10q80 -33 136 -102.5t75 -153.5q9 -42 9 -82q0 -113 -73 -213q-61 -82 -163 -123q-86 -35 -211 -43q-20 -2 -246 -2 q-219 0 -240 8q-18 8 -33 31zM340 166h184q201 4 205 4q127 14 189 68q59 51 79 139q4 26 4 51.5t-4 50.5q-23 96 -92 150q-59 45 -170 53q-16 2 -213 2h-182v-260v-258zM340 807h180q182 2 199 6q59 16 102 60.5t58 107.5q4 18 4 55q0 57 -25 107q-45 92 -139 119 q-16 4 -199 6h-180v-230v-231z" />
<glyph unicode="C" d="M285 758q10 449 229 598q78 51 168 59q28 3 55 3q68 0 131 -22q88 -30 140 -98q53 -71 53 -118v-6q-2 -27 -25.5 -43.5t-56.5 -14.5q-29 2 -47 17q-14 12 -25 41q-29 100 -137 120q-17 2 -33 2q-83 0 -145 -51q-102 -88 -137 -303q-17 -103 -16 -214q-1 -56 3 -114 q12 -174 56 -288q63 -162 190 -185q8 -2 51 -2q39 0 56 4q43 12 69 39q31 29 43 78q8 33 35 47q29 14 61.5 7t49.5 -29q6 -10 6 -29q0 -23 -6 -39q-20 -63 -68 -111q-41 -41 -82 -57q-74 -35 -167 -35t-173 35q-160 68 -225 281q-53 166 -53 396v32z" />
<glyph unicode="D" d="M291 94v623v624l4 11q12 25 49 37q4 1 24 1h23q41 -1 68 -6q272 -33 452 -213q154 -158 185 -356q8 -54 8 -107q0 -188 -109 -346q-86 -133 -237 -219q-166 -94 -363 -100q-49 0 -67 8q-23 10 -33 33zM444 170l19 4q193 29 332 164q127 131 151 311q4 18 4 64.5t-4 64.5 q-18 154 -117 273q-35 45 -92 90q-108 83 -233 110q-25 8 -41 9l-19 4v-547v-547z" />
<glyph unicode="E" d="M279 717q0 621 4 629q10 30 49 40q10 4 379 5q311 -2 343.5 -3.5t51.5 -13.5q27 -16 27 -45t-27 -45q-18 -12 -48 -13t-304 -3h-322v-232v-229h268q211 0 246 -1t51 -9q35 -18 35 -51t-35 -52q-16 -8 -51 -9t-246 -1h-268v-258v-260h322q274 -2 303.5 -3t48.5 -13 q27 -16 27 -45t-27 -46q-18 -12 -51 -13t-342 -3q-369 0 -377 2q-25 6 -43 25q-12 12 -13 65t-1 582z" />
<glyph unicode="F" d="M383 703.5q0 629.5 2 639.5q10 33 51 43q10 4 303 5q299 0 320 -9q18 -8 33 -30q5 -12 5 -23t-5 -22q-14 -23 -33 -31q-20 -8 -275 -8h-247v-230v-231h204h207l10 -6q45 -17 45 -52q0 -7 -2 -14q-6 -33 -43 -45l-10 -4l-207 -2h-204v-305q0 -307 -2 -313q-10 -27 -43 -41 q-16 -4 -32 -4t-32 4q-33 14 -43 41q-2 8 -2 637.5z" />
<glyph unicode="G" d="M197 725q6 174 51 309q72 207 225 312q84 57 193 69q27 5 56 5q35 0 73 -7q123 -20 219 -98q76 -61 110 -135q6 -12 6 -27q0 -35 -38 -53q-19 -8 -38 -8t-38 8q-20 12 -37 37q-63 119 -188 151q-37 9 -72 9q-75 0 -141 -41q-99 -62 -160 -199q-68 -156 -68 -359 q0 -297 152 -448q66 -66 147 -94q66 -22 131 -22q89 0 174 42l13 6v213v213h-133q-143 0 -164 10q-29 14 -33 35q-8 31 12 52q12 14 39 24q12 4 189.5 4t189.5 -4q31 -10 47 -35l6 -8v-274v-275l-6 -10q-10 -18 -41 -35q-134 -80 -288 -80q-34 0 -70 4q-195 18 -330 154 q-188 186 -188 530v25z" />
<glyph unicode="H" d="M244 721l2 647l4 8q16 25 47 35q8 2 27.5 1t27.5 -5q33 -14 43 -39q2 -6 2 -289v-282h273h272v282q0 283 2 289q10 27 43 41q16 4 33 4q14 0 31 -4q33 -14 43 -41q4 -8 4 -651t-4 -651q-10 -27 -43 -41q-16 -4 -31.5 -4t-32.5 4q-33 14 -43 41q-2 6 -2 307v301h-272h-273 v-301q0 -301 -2 -307q-10 -27 -43 -41q-16 -4 -32 -4t-31 4q-35 14 -43 43q-2 4 -2 653z" />
<glyph unicode="I" d="M301 104q0 29 27 46q16 12 30.5 13t116.5 3h119v551v551h-98q-94 0 -109 6q-37 14 -43 45q-4 23 10 42t41 25q13 4 275 4q52 0 94 1q170 0 180 -2q31 -10 47 -35q6 -12 6 -24.5t-6 -24.5q-8 -16 -28 -27q-18 -10 -123 -10h-92v-551v-551h112q115 0 123 -4q39 -8 51 -38 q4 -11 5 -20q0 -18 -15 -34q-18 -18 -43 -25q-8 -2 -317 -2q-260 2 -289 3t-47 13q-27 16 -27 45z" />
<glyph unicode="J" d="M221 340q0 43 10 74q21 39 66 39q9 0 20 -2q45 -6 58 -39q4 -10 2 -31q-1 -22 -1 -40q0 -35 5 -54q20 -70 70 -113q31 -23 69 -35q26 -7 51 -7q68 0 125 54q33 33 49 90l7 17v536l2 539l4 8q16 25 47 35q5 1 16 1h11q20 -1 28 -5q37 -14 43 -41q2 -6 2 -545l-2 -536 l-4 -21q-14 -63 -45 -106q-47 -72 -129 -111q-78 -37 -163 -37h-9q-125 6 -213 80q-119 96 -119 250z" />
<glyph unicode="K" d="M215 721l2 647l4 8q16 25 47 35q10 2 20 2q16 0 34 -6q28 -10 40 -31l7 -8v-297l2 -295l301 309q305 309 311 314q16 14 49 14q16 0 33 -6q29 -10 39 -35q10 -23 -2 -45q-8 -12 -514 -528l-53 -54l303 -315q305 -311 309 -321q8 -13 8 -25q0 -6 -2 -12q-8 -34 -44 -46 q-15 -5 -31 -5q-21 0 -42 10q-12 4 -319 323q-313 324 -328 342l-20 21v-322q0 -324 -2 -329q-10 -27 -43 -41q-16 -4 -32 -4t-32 4q-35 14 -43 43q-2 4 -2 653z" />
<glyph unicode="L" d="M246 90v639v639l4 8q16 25 47 35q5 1 16 1h11q20 -1 28 -5q33 -14 43 -39q2 -6 2 -604v-598h351h352l10 -6q31 -12 41 -37q4 -10 4 -19q0 -15 -10 -30q-12 -16 -35 -25l-10 -4l-393 -2q-397 0 -406 2q-33 6 -51 35z" />
<glyph unicode="M" d="M186 721l2 647l5 8q16 25 47 35q8 2 27.5 1t27.5 -5q20 -6 35 -25l4 -8l14 15q23 23 53 24h10q47 0 66 -37q2 -2 98 -323l95 -316q0 -2 12 38t34.5 117t45.5 155q23 74 46 154.5t36.5 122.5t13.5 44q12 29 41 39q8 4 33 4q23 0 29 -2q23 -8 36 -25l9 -10q4 4 6 8 q12 14 35 27q16 4 32 4q14 0 31 -4q33 -14 43 -41q2 -8 2 -651t-2 -651q-16 -41 -68 -46h-10q-47 0 -67 37l-4 11l-3 622v625l-129 -432q-115 -391 -131 -441q-10 -18 -36 -30q-10 -4 -35 -4t-37 6q-27 10 -33 28q-4 4 -131 437l-127 432l-2 -623v-620l-6 -11 q-16 -29 -51 -34q-11 -3 -21 -3q-16 0 -31 7q-37 14 -43 41q-2 4 -2 653z" />
<glyph unicode="N" d="M215 721l2 647l4 8q16 25 47 35q12 3 24 3q21 0 40 -9q20 -10 30 -27q2 -4 5 -2q0 2 12 15q22 22 54 22h3q47 0 68 -31q2 -2 237 -639l232 -630v626l2 629l4 8q21 37 68 37h10q51 -4 67 -45q2 -8 2 -651t-2 -651q-10 -27 -43 -41q-16 -4 -32 -4t-31 4q-23 12 -35 26 l-6 10l-6 -10q-14 -19 -41 -27q-13 -4 -26 -4q-14 0 -27 5q-29 10 -41 26q0 2 -29 77t-87 234.5t-120 325.5l-229 629l-2 -625v-624l-7 -11q-16 -29 -51 -34q-11 -3 -21 -3q-15 0 -30 7q-37 14 -43 41q-2 4 -2 653z" />
<glyph unicode="O" d="M223 440q-35 149 -35 290q0 178 56 345q106 317 374 352q28 4 56 4q90 0 174 -40q195 -90 268 -385q34 -142 34 -283t-34 -283q-74 -295 -268 -385q-89 -44 -178 -44l-178 44q-195 90 -269 385zM354 578q35 -287 181 -396q37 -29 79 -39q16 -4 55.5 -4t57.5 4 q39 10 80 39q63 51 111 146q77 166 77 378q0 78 -10 162q-35 285 -178 396q-41 29 -80 39q-37 6 -63 6q-16 0 -27 -2q-59 -10 -105 -43q-2 -2 -13 -12.5t-17 -16.5q-90 -89 -132 -273q-26 -113 -26 -233q0 -75 10 -151z" />
<glyph unicode="P" d="M244 711l2 635l4 8q16 25 47 35q10 2 217 2t244 -2q174 -12 274 -99q123 -108 124 -281q0 -8 -1 -16q-10 -188 -154 -284q-84 -59 -229 -78q-16 -2 -201 -4h-174v-277q0 -279 -2 -284q-10 -27 -43 -41q-16 -4 -32 -4t-31 4q-35 14 -43 43q-2 4 -2 643zM397 750h150 q164 0 180 2q117 10 180 53q33 23 56 55q39 61 39 143q0 10 -1 19q-4 90 -51 150.5t-125 82.5q-31 7 -45 9q-18 2 -205 4h-178v-258v-260z" />
<glyph unicode="Q" d="M223 440q-35 149 -35 290q0 178 56 345q106 317 374 352q28 4 55 4l89 -10q72 -14 125 -51q209 -137 252 -496q9 -75 9 -151q0 -89 -12 -177q-24 -165 -83 -280l-11 -20q0 -4 52 -70q55 -72 55 -74q6 -12 6 -23q0 -18 -16 -34q-25 -25 -59 -25h-9q-33 4 -47 19 q-12 12 -37 43q-6 8 -13 18.5t-12.5 15.5t-5.5 7l-4 4l-20 -18q-78 -66 -170 -84q-48 -10 -95 -10q-91 0 -175 40q-195 90 -269 385zM354 578q35 -287 181 -396q37 -29 79 -39q16 -4 55.5 -4t57.5 4q39 10 80 39q55 47 55 56q0 5 -137 182q-135 172 -143.5 186.5t-3.5 38.5 q6 12 16 23q20 20 59 20q33 0 56 -16q2 -2 18 -22.5t45 -58.5t55 -71l111 -141q2 0 7 14.5t11.5 36t8.5 35.5q31 122 31 253q0 60 -6 122q-21 196 -95 321q-41 68 -88 103q-41 29 -80 39q-37 6 -63 6q-15 0 -27 -2q-59 -10 -105 -43q-2 -2 -13 -12.5t-17 -16.5 q-90 -90 -132 -273q-26 -114 -26 -233q0 -75 10 -151z" />
<glyph unicode="R" d="M266 703.5q0 629.5 2 639.5q10 33 51 43q10 4 179 5q166 -2 188 -7q121 -23 213 -96q84 -70 119 -174q20 -61 20 -121q0 -43 -10 -86q-20 -84 -77.5 -151.5t-135.5 -100.5l-24 -10q72 -125 157 -274q158 -272 160 -285q0 -27 -21 -45q-16 -16 -49 -21q-5 -1 -10 -1 q-33 0 -55 24q-8 6 -174 297l-166 287h-107h-106v-277q0 -279 -2 -284q-10 -27 -43 -41q-16 -4 -31.5 -4t-32.5 4q-33 14 -43 41q-2 8 -2 637.5zM420 750h141q141 2 158 6q59 16 103 65t59 119q4 26 4 52t-4 52q-18 82 -76 144q-59 56 -137 74q-18 4 -133 6h-115v-258v-260z " />
<glyph unicode="S" d="M264 285q20 33 62 33q6 0 12 -1q25 -2 41 -12q20 -14 29 -33l6 -18q27 -61 90 -95q56 -30 126 -30h17q100 6 178 62.5t101 140.5q4 18 4 57q0 49 -12 90q-18 55 -66 96q-53 45 -199 101q-63 27 -92 37q-180 78 -244 200q-36 71 -36 149q-1 36 7 73q24 118 118 194 q85 74 204 86q29 4 59 4q70 0 142 -20q180 -53 248 -209q6 -16 6 -35q0 -25 -14 -39q-26 -26 -56 -26q-20 0 -43 12q-25 10 -39 45q-2 4 -5 9t-4 9t-3 8.5t-4 6.5q-29 47 -70 71q-43 27 -106 41q-18 2 -53 2t-50 -2q-66 -12 -116 -59q-69 -72 -68 -163q0 -18 2 -36 q16 -102 107 -166q53 -33 178 -82q104 -41 139 -59q182 -92 217 -258q8 -41 8 -80q0 -80 -34 -151q-49 -90 -142.5 -150.5t-212.5 -77.5q-20 -2 -67 -2t-68 2q-98 14 -172 64q-78 51 -117 129q-15 33 -15 56q0 15 7 26z" />
<glyph unicode="T" d="M188 1309q-2 10 -2 20.5t2 20.5q15 29 52 39q8 2 434 2h426l10 -7q31 -12 41 -36q4 -9 4 -19q0 -15 -10 -31q-12 -16 -35 -24l-10 -4l-176 -2h-176v-598q0 -598 -3 -604q-10 -27 -43 -41q-16 -4 -31.5 -4t-31.5 4q-33 14 -43 41q-2 6 -2 604v598h-172q-180 0 -201 10 q-20 6 -33 31z" />
<glyph unicode="U" d="M217 893v475l4 8q16 25 47 35q8 2 27.5 1t28.5 -5q33 -14 43 -39q2 -6 2 -465q0 -463 2 -477q10 -100 61 -172q29 -41 68 -70q55 -35 114 -43q8 -2 58 -2q47 0 57 2q57 8 113 43q39 29 67 70q51 72 62 172q2 12 2 477q0 459 2 465q10 27 43 41q16 4 33 4q14 0 30 -4 q37 -14 43 -43q2 -6 2 -479l-2 -471l-4 -33q-27 -145 -123 -246q-100 -98 -247 -119q-40 -4 -79 -4t-77 4q-104 16 -178 64q-145 92 -187 264q-10 43 -11 90t-1 457z" />
<glyph unicode="V" d="M186 1354q1 39 50 55q12 3 25 3q17 0 33 -6q30 -11 40 -34q4 -10 168 -647l164 -641l-2 -12q-6 -31 -43 -47q-16 -4 -31 -4q-19 0 -35 6q-23 6 -37 30q-4 8 -168 645q-164 641 -164 652zM676 80q0 16 164 649q164 637 168 645q10 25 49 37q10 2 21.5 2t23.5 -2 q23 -8 37 -22q16 -16 16 -37q0 -4 -165 -646.5t-167 -646.5q-16 -29 -53 -37q-10 -2 -20 -2q-26 0 -48 15q-27 14 -26 45z" />
<glyph unicode="W" d="M186 1346q0 27 13 38q10 17 37 25q14 4 27 4q19 0 37 -8q32 -14 38 -43q0 -2 4 -84t11 -239.5t14 -307.5l30 -625v5q2 4 6.5 16t9.5 30.5t12 47t16.5 63.5t21.5 82t26 103q74 287 85.5 327.5t25.5 50.5q18 14 64 17q41 0 63 -8q23 -10 33 -33q0 -2 12 -48t35.5 -138.5 t46.5 -174.5q25 -92 45.5 -174t32.5 -127t12 -43q0 27 29 633q29 627 33 637q10 25 38 35q4 2 14.5 4t12.5 2q5 1 10 1q33 0 58 -25q13 -6 13 -62v-8q-1 -64 -26 -606q-29 -639 -32 -650q-14 -31 -54 -40q-12 -3 -22 -3q-26 0 -47 15q-20 12 -25 28q-2 2 -4 3q0 -8 -22 -31 q-23 -16 -48 -16q-15 0 -30 6q-41 12 -49 45q0 2 -9.5 35.5t-25 93t-29.5 116.5q-8 31 -15 59.5t-12.5 51.5t-10.5 42t-9 32.5t-7 24t-3 14.5l-2 4l-8 -31q-8 -31 -24.5 -94.5t-31.5 -116.5q-51 -199 -59 -226.5t-23 -37.5q-18 -14 -51 -14q-37 0 -55 16q-20 16 -21 29 l-2 -2q-10 -27 -43 -41q-16 -4 -30 -4q-18 0 -35 6q-37 14 -41 45q-2 4 -31 628.5t-29 645.5z" />
<glyph unicode="X" d="M227 92q18 37 172 320q172 315 172 317l2 6l-163 295q-162 295 -168 301q-6 14 -2 35q6 14 14 23q14 14 37 22q11 3 22 3q17 0 37 -7q18 -8 38 -40t138 -245l144 -256q66 117 145 258q141 256 150 265q12 14 41 22q11 3 21 3q16 0 32 -7q29 -10 39 -35q4 -8 4 -24 q-2 -12 -215 -398l-121 -217l172 -315q170 -309 174 -324q3 -7 3 -15q0 -11 -7 -22q-18 -33 -60 -37q-5 -1 -11 -1q-35 0 -58 24q-10 10 -160 285q-25 45 -45 81.5t-34.5 64.5t-27 49.5t-20.5 35.5t-13 23.5t-7 11.5l-4 4q0 -4 -150 -272q-145 -272 -151 -279 q-18 -27 -64 -27q-35 0 -59 23q-19 18 -18 39q0 5 1 10z" />
<glyph unicode="Y" d="M233 1360q7 39 52 51q2 0 12 1t16 1q33 -2 54 -22q14 -14 155 -283l148 -272l125 231l2 2v2l2 2v2l2 2v2l2 2v2l2 2v2l2 3v2l2 2v2l2 2v2l2 2l2 4q145 272 152 278q18 29 65 29q35 0 55 -20q20 -18 21 -45q-2 -16 -180 -349l-180 -335v-295q0 -297 -3 -303 q-10 -27 -43 -41q-16 -4 -31.5 -4t-31.5 4q-33 14 -43 41q-2 6 -2 303v295l-178 331q-180 340 -180 342q-3 8 -3 18v5z" />
<glyph unicode="Z" d="M246 104v17l293 569q289 567 295 574q0 4 -260.5 4t-270.5 2q-53 16 -53 59.5t53 59.5q6 2 334 2q332 0 352 -9q23 -10 33 -32q3 -8 3 -18q0 -19 -13 -46q-23 -39 -295 -573l-281 -547h297q305 0 326 -8q18 -8 33 -31q5 -12 5 -23t-5 -22q-14 -23 -33 -31q-20 -8 -389 -8 q-362 0 -371 2q-33 8 -49 35q-4 8 -4 24z" />
<glyph unicode="[" d="M383 770v217q4 510 12 520l4 4q14 15 37 21q10 4 320 4h309l10 -6q45 -16 45 -55t-45 -56l-10 -4l-264 -2h-264v-637v-639h264h264l10 -6q45 -16 45 -55t-45 -56l-10 -4l-307 -2q-309 0 -318 2q-33 6 -51 35l-4 10z" />
<glyph unicode="\" d="M309 1475q0 16 4 22q14 27 49 37q27 6 54.5 -4t38.5 -31q4 -6 290 -708q242 -596 266.5 -658.5t16.5 -77.5q-25 -45 -78 -41q-41 4 -61 31q0 2 -38 94t-111.5 271.5t-143.5 347.5q-287 705 -287 717z" />
<glyph unicode="]" d="M223 55q-6 20 2 43q14 23 33 31q20 8 287 8h258v639v637h-258q-205 0 -239 1t-50 9q-20 6 -33 31q-4 20 0 41q14 29 51 39q12 2 313.5 2t315.5 -2q33 -8 47 -37l6 -10v-713v-711l-6 -10q-14 -29 -47 -37q-10 -2 -313 -2q-242 0 -280 1t-54 10q-20 6 -33 30z" />
<glyph unicode="^" d="M186 850q0 4 2 10v8q2 8 209 316.5t213 314.5q17 17 33 21q29 8 59 0q18 -8 42 -41t194 -287q209 -313 211 -318q12 -23 0 -47q-27 -47 -88 -36q-29 8 -49 28q-29 29 -178 189q-35 37 -59.5 63.5t-43 45t-31 30.5t-19.5 19.5t-9 9.5l-4 2q-18 -18 -179 -189 q-172 -184 -186 -190q-41 -18 -79 -1t-38 52z" />
<glyph unicode="_" d="M184 -349q0 42 4 50q15 29 52 39q8 2 430 2q338 0 387 -1t65 -11q18 -10 29 -29q4 -8 4 -47t-2 -49q-12 -25 -31 -33q-16 -10 -65 -11t-387 -1q-332 0 -382 1t-67 9q-20 6 -33 31q-4 8 -4 50z" />
<glyph unicode="`" d="M246 729v639l4 8q16 25 47 35q10 2 400 2t403 -2q31 -6 49 -35l6 -8v-137v-137l-6 -11q-12 -20 -37 -30q-35 -12 -68 0q-25 10 -36 30q-6 12 -7 109v98h-303h-301v-600q0 -594 -4 -606q-16 -33 -57 -39q-63 -10 -88 39q-2 6 -2 645z" />
<glyph unicode="a" d="M186 537q0 317 217 456q88 59 201 72q11 2 27 2q7 1 28 1h26q44 -1 60 -3q133 -20 234 -100l22 -19v29q0 23 5 39q16 31 57 37q11 2 20 2q45 0 68 -39q4 -16 4 -482v-471l-6 -10q-23 -37 -72 -37t-69 37q-6 12 -7 45v35l-22 -18q-100 -84 -252 -103q-30 -3 -59 -3 q-148 0 -265 77q-217 141 -217 453zM342 535q0 -78 12 -129q37 -174 170 -240q37 -18 78 -29q23 -4 70 -4q45 0 67 4q41 10 78 29q133 66 170 240q12 51 12 129q0 72 -10 129q-10 47 -35 106q-61 121 -180 160q-31 10 -43 10q-33 5 -66 5q-17 0 -34 -1q-121 -16 -193 -96 q-66 -78 -86 -184q-10 -57 -10 -129z" />
<glyph unicode="b" d="M186 770q0 713 4 721q11 33 54 43q9 1 18 1q17 0 33 -5q29 -10 39 -31l6 -10v-272v-271l22 19q100 82 242 100q12 2 68 2q68 0 110 -10q166 -35 267 -164q106 -141 106 -356q0 -311 -215 -453q-120 -77 -267 -77q-29 0 -59 3q-152 18 -252 103l-22 18v-35q0 -33 -6 -45 q-23 -37 -72 -37t-69 37l-5 10zM342 535q0 -78 12 -129q37 -174 170 -240q37 -18 78 -29q23 -4 70 -4q45 0 67 4q41 10 78 29q133 66 170 240q12 51 12 129q0 72 -10 129q-10 47 -35 106q-61 121 -180 160q-31 10 -43 10q-33 5 -66 5q-17 0 -34 -1q-121 -16 -193 -96 q-66 -78 -86 -184q-10 -57 -10 -129z" />
<glyph unicode="c" d="M213 344q-28 99 -28 197q0 107 34 211q66 201 252 278q72 29 133 35q11 2 27 2q15 3 37 3q34 0 86 -7q125 -18 211 -86t120 -174q8 -23 9 -45q0 -18 -7 -29q-10 -16 -36 -29q-8 0 -25 -4q-29 -2 -52.5 13.5t-29.5 38.5q-14 66 -65 120q-29 29 -66 47q-66 33 -138 33 q-53 0 -108 -18q-94 -31 -151 -113q-33 -47 -49 -100q-12 -35 -23 -105q-4 -27 -4 -80t4 -77q20 -152 107 -236q35 -35 77 -57q59 -29 142 -29q53 0 96 10q115 29 160 121q12 23 16 58q2 29 21 45q20 18 57 18q36 -1 56 -19q19 -17 18 -44v-5q0 -74 -54 -145 q-29 -39 -71 -72q-117 -86 -281 -92h-10q-127 0 -229 49q-176 84 -236 287z" />
<glyph unicode="d" d="M186 537q0 317 217 456q84 57 201 72q20 4 66.5 4t66.5 -4q141 -18 242 -100l22 -19v268q0 268 5 279q10 31 53 41q9 1 18 1q17 0 33 -5q29 -10 39 -31l6 -10v-715v-713l-6 -10q-23 -37 -72 -37t-69 37q-6 12 -7 45v35l-22 -18q-100 -84 -252 -103q-30 -3 -59 -3 q-148 0 -265 77q-217 141 -217 453zM342 535q0 -78 12 -129q37 -174 170 -240q37 -18 78 -29q23 -4 70 -4q45 0 67 4q41 10 78 29q133 66 170 240q12 51 12 129q0 72 -10 129q-10 47 -35 106q-61 121 -180 160q-31 10 -43 10q-33 5 -66 5q-17 0 -34 -1q-121 -16 -193 -96 q-66 -78 -86 -184q-10 -57 -10 -129z" />
<glyph unicode="e" d="M186 537q0 315 217 456q84 57 201 72q11 2 27 2q9 1 32 2q11 0 26 -1q44 -1 67 -5q197 -31 286 -182q39 -70 52 -152q8 -53 8 -91q0 -42 -10 -65q-6 -20 -33 -32q-18 -8 -373 -9h-346v-28q8 -182 111 -285q35 -35 77 -57q59 -29 142 -29q53 0 96 10q115 29 160 121 q12 23 16 58q2 29 21 45q20 18 57 18q36 -1 56 -19q19 -17 18 -44v-5q0 -74 -54 -145q-29 -39 -71 -72q-117 -86 -281 -92h-13q-64 0 -136 17q-76 16 -133 57q-219 141 -220 455zM350 655h297h299v9q0 57 -18 108q-50 145 -193 170q-37 4 -64 4q-18 0 -32 -2 q-127 -14 -203 -100q-29 -35 -49 -78q-25 -49 -37 -107v-4z" />
<glyph unicode="f" d="M260 965q-5 10 -5 20.5t5 22.5q12 20 33 30q20 8 164 9h137v180q0 150 2 173t14 36q8 8 21 16q41 10 184 41q172 37 186 37q51 0 72 -39q12 -23 0 -43q-6 -20 -31 -33q-41 -10 -151 -35q-35 -6 -71 -13t-54 -11l-18 -4v-152v-153h141q135 0 151 -7q27 -10 37 -30 q6 -8 6 -24.5t-6 -24.5q-10 -20 -37 -31q-16 -6 -151 -6h-141v-432v-431l-7 -10q-20 -37 -69 -37t-72 37l-4 10l-2 431v432h-137q-143 0 -164 8q-23 10 -33 33z" />
<glyph unicode="g" d="M186 537q0 317 217 456q88 59 201 72q11 2 27 2q7 1 28 1h26q44 -1 60 -3q133 -20 234 -100l22 -19v29q0 23 5 39q16 31 57 37q11 2 20 2q46 0 68 -39q4 -16 4 -477q0 -516 -8 -568q-20 -135 -105 -215q-92 -84 -237 -104q-27 -4 -63 -4q-24 0 -52 2q-174 14 -305 121 q-74 59 -90 94q-4 11 -4 21q0 22 20 40t51 20.5t54 -14.5q8 -4 26 -26q86 -100 211 -125q44 -10 85.5 -10t79.5 10q77 20 124 74q31 39 43 84q16 61 16 161v33l-22 -18q-100 -84 -252 -103q-30 -3 -59 -3q-148 0 -265 77q-217 141 -217 453zM342 535q0 -78 12 -129 q37 -174 170 -240q37 -18 78 -29q23 -4 70 -4q45 0 67 4q41 10 78 29q133 66 170 240q12 51 12 129q0 72 -10 129q-10 47 -35 106q-61 121 -180 160q-31 10 -43 10q-33 5 -66 5q-17 0 -34 -1q-121 -16 -193 -96q-66 -78 -86 -184q-10 -57 -10 -129z" />
<glyph unicode="h" d="M272 770q0 713 4 721q11 33 54 43q9 1 18 1q17 0 33 -5q29 -10 39 -31l6 -10v-258v-258l8 6q78 61 189 78q28 2 55 2q60 0 110 -12q213 -49 261 -283q18 -90 18 -442v-261l-6 -10q-20 -37 -69.5 -37t-71.5 37l-5 10l-2 289q-2 301 -8 352q-16 133 -84 189q-51 43 -143 43 q-41 0 -55 -4q-43 -10 -86 -41q-80 -68 -105 -182q-4 -20 -6 -334v-312l-6 -10q-23 -37 -72 -37t-69 37l-5 10z" />
<glyph unicode="i" d="M330 944q-4 11 -4 22q0 14 7 28q13 24 46 32q12 2 205.5 2t208.5 -2q31 -10 47 -35l6 -8v-461v-461l-6 -10q-20 -37 -69.5 -37t-72.5 37l-4 10l-2 422v422h-151q-160 0 -179 8q-20 10 -32 31zM604 1427q0 68 14 82q12 17 39 23q12 4 70.5 4t71.5 -2q31 -10 47 -35l6 -8 v-64v-61l-6 -10q-8 -16 -31 -27q-16 -10 -92 -10q-72 2 -92 16q-20 16 -25 31q-2 4 -2 61z" />
<glyph unicode="j" d="M270 -280q-4 9 -4 18q0 15 10 29t40 26t178 66l186 65v490v491h-121q-117 0 -131 6q-12 4 -20 13q-26 18 -26 40q0 13 9 27q12 27 45 33q12 4 172 4t172 -2q31 -10 47 -35l7 -8v-553q0 -473 -1.5 -521t-13.5 -61q-8 -8 -20 -16l-224 -80l-208 -74h-23q-25 0 -33 5 q-31 12 -41 37zM604 1427q0 68 14 82q12 17 39 23q12 4 70.5 4t71.5 -2q31 -10 47 -35l6 -8v-64v-61l-6 -10q-8 -16 -31 -27q-16 -10 -92 -10q-72 2 -92 16q-20 16 -25 31q-2 4 -2 61z" />
<glyph unicode="k" d="M307 770q0 713 4 721q11 33 54 43q9 1 18 1q17 0 33 -5q29 -10 39 -31l6 -10v-414v-413h20h21l94 86q14 14 58 54t82 74.5t65 59.5q117 106 131 113q6 0 14 2q9 1 16 1q35 0 58 -22q18 -16 18 -41q0 -10 -8 -24q-10 -14 -199 -187l-194 -180q-2 0 64.5 -71.5 t162.5 -174.5q225 -242 234 -254q4 -11 4 -22q0 -23 -19 -41q-20 -20 -54 -20.5t-56 18.5q-8 6 -244 256l-231 250h-19h-18v-240v-238l-6 -10q-20 -37 -69.5 -37t-72.5 37l-4 10z" />
<glyph unicode="l" d="M477 782q0 700 4 711q11 31 54 41q9 1 18 1q17 0 33 -5q29 -10 39 -31l6 -10v-670v-669h170q172 0 182 -5q39 -7 51 -37q4 -10 5 -21q0 -18 -15 -34q-12 -16 -41 -22q-12 -4 -225 -4t-226 4q-41 10 -51 41q-4 8 -4 710z" />
<glyph unicode="m" d="M186 287q-2 274 -2 444q0 255 4 275q14 45 76 45q47 0 66 -29l4 -8l14 10q35 23 94 33q14 1 29 1q30 0 64 -5q90 -20 135 -84l10 -13l4 9q49 59 117 82q37 11 77 11q18 0 36 -2q60 -7 106 -36q98 -68 123 -244q12 -86 12 -407v-308l-6 -10q-23 -37 -72 -37t-69 37l-4 10 l-3 312q-2 322 -4 344q-18 180 -84 211q-16 8 -30.5 8t-30.5 -6q-33 -18 -59 -68q-29 -53 -41 -143q-4 -25 -4 -338v-320l-7 -10q-20 -37 -69 -37t-72 37l-4 10l-2 318q-2 328 -8 383q-12 92 -43 137q-16 23 -35 31q-10 4 -29 4q-20 0 -30 -4q-70 -33 -103 -195l-4 -28 l-2 -324v-322l-6 -10q-23 -37 -72 -37t-69 37l-5 10z" />
<glyph unicode="n" d="M217 61v471q0 473 2 482q16 31 57 37q11 2 20 2q46 0 69 -39q4 -16 4 -62v-53l18 16q121 117 287 142q13 1 39 1h28q47 -1 68 -3q109 -18 178 -76q106 -86 131 -272q8 -59 8 -385v-261l-6 -10q-23 -37 -72 -37t-69 37l-4 10l-2 289q-2 301 -8 352q-16 133 -84 189 q-47 39 -133 45h-14q-142 0 -249 -119q-59 -66 -96 -141l-18 -37l-2 -289v-289l-7 -10q-23 -37 -71.5 -37t-69.5 37z" />
<glyph unicode="o" d="M186 537q0 317 217 456q88 59 201 72q11 2 27 2q7 1 28 1h26q44 -1 60 -3q193 -31 304 -172q66 -86 88 -193q19 -85 19 -166q0 -98 -28 -190q-35 -119 -118.5 -203t-198.5 -114q-79 -20 -151 -20q-141 0 -257 77q-217 141 -217 453zM342 535q0 -78 12 -129 q37 -174 170 -240q37 -18 78 -29q23 -4 70 -4q45 0 67 4q41 10 78 29q133 66 170 240q12 51 12 129q0 72 -10 129q-10 47 -35 106q-61 121 -180 160q-31 10 -43 10q-33 5 -66 5q-17 0 -34 -1q-121 -16 -193 -96q-66 -78 -86 -184q-10 -57 -10 -129z" />
<glyph unicode="p" d="M188 358.5q0 647.5 2 655.5q16 31 58 37q11 2 20 2q46 0 68 -39q4 -16 4 -39v-29l22 19q61 51 154 82q27 8 88 18q11 2 27 2q7 1 28 1h26q44 -1 60 -3q162 -25 271 -135q139 -143 139 -393q0 -311 -215 -453q-120 -77 -267 -77q-29 0 -59 3q-152 18 -252 103l-22 18v-209 q0 -205 -4 -217q-21 -41 -68 -41q-9 0 -20 2q-41 6 -58 39q-2 6 -2 653.5zM342 535q0 -78 12 -129q37 -174 170 -240q37 -18 78 -29q23 -4 70 -4q45 0 67 4q41 10 78 29q133 66 170 240q12 51 12 129q0 72 -10 129q-10 47 -35 106q-61 121 -180 160q-31 10 -43 10 q-33 5 -66 5q-17 0 -34 -1q-121 -16 -193 -96q-66 -78 -86 -184q-10 -57 -10 -129z" />
<glyph unicode="q" d="M186 537q0 317 217 456q88 59 201 72q11 2 27 2q7 1 28 1h26q44 -1 60 -3q133 -20 234 -100l22 -19v29q0 23 5 39q16 31 57 37q11 2 20 2q46 0 68 -39q4 -16 4 -656q0 -641 -4 -653q-16 -33 -57 -39q-11 -2 -20 -2q-47 0 -68 41q-4 12 -5 217v209l-22 -18 q-100 -84 -252 -103q-30 -3 -59 -3q-148 0 -265 77q-217 141 -217 453zM342 535q0 -78 12 -129q37 -174 170 -240q37 -18 78 -29q23 -4 70 -4q45 0 67 4q41 10 78 29q133 66 170 240q12 51 12 129q0 72 -10 129q-10 47 -35 106q-61 121 -180 160q-31 10 -43 10q-33 5 -66 5 q-17 0 -34 -1q-121 -16 -193 -96q-66 -78 -86 -184q-10 -57 -10 -129z" />
<glyph unicode="r" d="M375 61v471q0 473 2 482q16 31 57 37q11 2 20 2q45 0 68 -39q4 -16 4 -47v-37l17 16q102 95 225 111q21 3 41 3q40 0 74 -11q147 -43 196 -224q20 -69 20 -109q0 -19 -5 -32q-18 -45 -74 -45q-35 0 -56.5 18.5t-21.5 47.5q0 61 -21.5 119.5t-54.5 86.5q-29 25 -64 25 q-9 0 -18 -2q-84 -14 -154.5 -100t-97.5 -207l-4 -25l-2 -270v-271l-6 -10q-20 -37 -69.5 -37t-71.5 37z" />
<glyph unicode="s" d="M268 264q4 38 48 50q15 4 28 4q27 0 51 -17q16 -10 27 -39q14 -33 37 -57q51 -49 135 -64q54 -11 101 -11q117 0 192 69q31 27 41 69q4 16 4 32q0 24 -10 46q-29 70 -119 100q-29 10 -119 25q-86 10 -133 23q-139 39 -209 129q-52 70 -52 152v14q5 90 68 159 q91 101 275 119q9 1 32 2q11 0 25 -1q43 -1 60 -3q76 -12 135 -41q111 -53 151 -154q10 -29 6 -45q-8 -31 -47 -43q-10 -4 -30 -4q-53 2 -76 56q-23 55 -82 84q-58 29 -127 29q-20 -1 -40 -3q-93 -10 -148 -59q-50 -44 -50 -106q0 -13 2 -27q8 -37 23 -56q31 -43 82 -69 q45 -18 158 -35q82 -12 127 -25q168 -41 227 -168q25 -48 25 -100q0 -42 -17 -86q-23 -66 -88 -115q-84 -62 -206 -82q-47 -8 -94 -8q-75 0 -149 19q-170 45 -239 161q-25 48 -25 70v6z" />
<glyph unicode="t" d="M219 995q12 20 33 31q18 8 127 8h98v127q0 106 2 125t13 31q11 16 38 22q15 4 29 4q35 0 57 -26q10 -12 12.5 -30.5t2.5 -125.5v-127h168q178 0 198 -10q35 -18 35 -51t-35 -51q-20 -10 -198 -11h-168v-381v-380h170q172 0 182 -5q39 -7 51 -37q4 -10 5 -21 q0 -18 -15 -34q-12 -16 -41 -22q-12 -4 -225 -4t-226 4q-29 6 -40 22q-12 12 -13.5 50t-1.5 393v415h-98q-102 0 -111 2q-31 10 -45 33q-8 13 -8 28q0 10 4 21z" />
<glyph unicode="u" d="M215 719q0 279 4 295q16 27 53 37q8 1 17 1t20 -1q39 -6 56 -37q4 -16 4 -318q0 -299 4 -327q20 -158 129 -213q57 -28 116 -28q37 0 74 11q29 8 66 31q129 74 205 256l10 23v278q0 270 4 287q16 31 57 37q11 2 20 2q45 0 68 -39q4 -16 4 -482v-471l-6 -10 q-23 -37 -72 -37t-69 37l-4 10l-2 54v53l-23 -21q-98 -96 -215 -124q-56 -15 -115 -15q-48 0 -96 10q-154 29 -233 142q-66 88 -74 235q-2 23 -2 324z" />
<glyph unicode="v" d="M197 1012q14 33 53 39q9 1 18.5 1t18.5 -1q39 -10 51 -35q0 -2 21.5 -59.5t64.5 -179.5t80 -222q37 -104 80 -224t63.5 -177.5t20.5 -59.5l4 -4q0 4 164.5 465t169.5 465q18 31 67 31q35 0 56.5 -18.5t19.5 -45.5q-2 -10 -166 -470t-170 -470q-18 -29 -61 -33h-10 q-51 0 -68 39l-2 10l-8 -12q-16 -31 -58 -36q-7 -1 -14 -1q-33 0 -55 21q-8 8 -13 16q-6 10 -168 469q-140 389 -154 433q-9 27 -8 43q0 10 3 16z" />
<glyph unicode="w" d="M197 1012q14 33 53 39q9 1 18.5 1t18.5 -1q41 -10 53 -39q4 -12 33 -457q29 -430 28 -457l27 58q23 57 70 182q100 254 102 256q8 20 33.5 30.5t50.5 6.5q41 -6 55 -35q4 -6 100.5 -254t96.5 -250v-2l31 453l30 461q10 47 76 47q59 0 74 -47q2 -10 -27 -467 q-6 -104 -14 -227.5t-12 -182.5t-4 -61q-10 -45 -70 -52h-9q-35 0 -59 27q-8 8 -12 16q0 10 -6 -2t-10 -16q-25 -25 -63 -25t-60 25q-12 14 -70 168q-6 18 -13 35.5t-13.5 33t-11.5 28.5t-9 23.5t-7 18.5t-5 10l-2 4q-29 -70 -60 -153q-14 -37 -30.5 -76t-25.5 -61.5 t-9 -24.5q-14 -20 -47 -27.5t-60 5.5q-23 12 -30 30l-7 10l-2 -8q-12 -23 -30 -30q-24 -12 -45 -12q-30 0 -56 24q-14 12 -18 56t-29 425q-28 420 -28 466q0 19 4 28z" />
<glyph unicode="x" d="M260 96q8 16 156 226l153 221q-63 98 -143 215q-135 197 -145 219q-6 25 10 46.5t47 27.5q8 1 16 1q16 0 33 -5q18 -6 33.5 -27t122.5 -178l127 -187q57 82 125 185q33 47 64.5 94t49.5 74l19 24q22 20 56 20h2q34 0 56 -22q29 -25 17 -57q-6 -10 -146 -217 q-141 -209 -141 -213q0 -2 150 -219q154 -217 157 -226q6 -11 6 -21q0 -13 -8 -26q-16 -33 -60 -37h-10q-37 0 -59 25q-4 2 -143 201q-18 29 -34.5 51t-30 40.5t-23.5 33t-18.5 25.5t-13.5 19.5t-9 12.5l-6 6l-2 2q0 -2 -136 -192q-129 -188 -137 -197q-23 -27 -63 -27 q-38 0 -62 27q-15 17 -15 34q0 11 5 21z" />
<glyph unicode="y" d="M186 -268q0 31 31 49q12 8 78 20l45 9l14 18q16 16 129 227t113 213q-90 158 -201 350q-193 326 -207 355q-4 8 -4 17q0 11 6 24q19 29 52 35q12 2 22 2t19 -2q25 -4 39 -21q16 -16 182 -309l176 -301l162 301q162 301 172 311q24 24 54 24q20 0 44 -12q20 -8 30 -28 q7 -14 7 -25q0 -6 -2 -12q-4 -12 -225 -418q-285 -530 -320 -594l-98 -182l-31 -35q-39 -41 -55 -47q-8 -2 -78 -16.5t-78 -14.5q-39 0 -59 25q-16 16 -17 37z" />
<glyph unicode="z" d="M260 121q2 2 40 53t111.5 151.5t143.5 192.5l289 387h-258l-256 2l-13 4q-31 12 -41 37t6.5 47.5t43.5 28.5q10 4 338 4q262 0 303 -1t57 -11q34 -18 34 -46q0 -11 -5 -22q-4 -10 -293 -397l-291 -389q0 -2 285 -2q291 0 311 -8q2 0 5 -2.5t7 -5.5t6 -5 q20 -20 20.5 -40.5t-20.5 -41.5q-12 -10 -34 -18q-12 -2 -369.5 -2t-368.5 2q-25 8 -37 18q-18 18 -18 41q0 11 4 23z" />
<glyph unicode="{" d="M186 778q4 29 25 41q18 16 90 19q96 2 143 24q57 31 78 99q10 39 13 141q0 18 1 42.5t2 40t1 21.5q14 147 98 226q96 92 274 104q12 2 64.5 2t83.5 -2q43 -2 51 -6q31 -12 41 -37t-6 -49q-12 -16 -35 -25q-10 -4 -109 -6q-100 0 -116 -2q-92 -16 -137.5 -65.5 t-55.5 -145.5q0 -6 -1 -21.5t-2 -40t-1 -42.5q-2 -117 -20 -176q-29 -84 -95 -132l-18 -14l12 -10q35 -25 64 -66q31 -49 45 -106q10 -47 12 -150q2 -129 19 -172q39 -113 157 -133q16 -2 92 -2q141 2 154 -4q31 -12 41 -36.5t-6 -49.5q-12 -16 -35 -25q-8 -4 -78 -8 q-135 -4 -184 2q-223 33 -289 224q-23 61 -24 198q-4 102 -5 107q-18 109 -86 143q-43 25 -145 27q-59 2 -63 4q-51 18 -50 61z" />
<glyph unicode="|" d="M594 623q0 860 4 870q10 31 53 41q27 4 51 -4q29 -10 39 -31l7 -10v-862q0 -862 -5 -871q-10 -31 -51 -41q-29 -8 -57.5 4.5t-36.5 36.5q-4 8 -4 867z" />
<glyph unicode="}" d="M186.5 1474.5q-0.5 20.5 14.5 34.5q23 25 78 27q109 4 192 -2q123 -18 205 -78q92 -72 117 -194q10 -49 12 -148q0 -82 4 -102q14 -129 111 -158q35 -14 116 -16q29 -2 60 -2q39 -8 53 -37q12 -25 0 -47q-14 -25 -45 -35q-12 -4 -62 -4q-100 -2 -147 -27 q-55 -31 -76 -102q-12 -41 -14 -148q-2 -137 -25 -198q-45 -129 -159 -185q-78 -37 -187 -43q-147 0 -190 6q-41 10 -56 39q-4 20 0 41q14 23 33 31q20 10 86 8q133 -4 164 2q119 18 162 133q16 43 18 172q2 100 13 154q29 111 108 168l12 10l-12 8q-49 33 -80 92 q-41 74 -41 236q0 61 -2 76q-8 125 -74 178q-33 27 -77 37q-43 12 -158 12q-98 2 -107 4q-20 8 -32 23q-14 14 -14.5 34.5z" />
<glyph unicode="~" d="M217 1219q0 27 19 67q59 123 200 141q84 12 160 -20q43 -18 125 -80q49 -37 55 -39q39 -25 62 -28q55 -14 100 30q27 27 35 64q8 31 41 47q29 14 63 2q57 -20 47 -68q-16 -92 -106 -155q-29 -20 -57 -29q-39 -16 -99 -16q-41 0 -59 4q-78 18 -191 102q-100 74 -149 66 q-74 -10 -96 -97q-2 -12 -9 -22q-23 -31 -67.5 -31t-65.5 31q-8 12 -8 31z" />
<glyph unicode="&#xa0;" />
<glyph unicode="&#xa8;" d="M211 104.5q0 16.5 4 24.5q16 25 47 35q8 2 412 2q395 0 411 -4q27 -12 37 -29q16 -23 5 -48.5t-42 -37.5q-16 -4 -407 -4q-403 0 -412 2q-33 6 -51 35q-4 8 -4 24.5zM211 1329.5q0 16.5 4 24.5q16 25 47 35q8 2 412 2q395 0 411 -5q27 -12 37 -28q16 -23 5 -48.5 t-42 -37.5q-16 -4 -407 -4q-403 0 -412 2q-33 6 -51 35q-4 8 -4 24.5zM334 745.5q0 18.5 4 26.5q14 25 47 33q8 2 289 2h280l11 -6q27 -10 36 -31q12 -23 2 -46.5t-38 -33.5l-11 -4l-276 -2q-289 0 -309 8q-14 6 -31 27q-4 8 -4 26.5z" />
<glyph unicode="&#xab;" d="M596 1141q2 4 57.5 93t63.5 99q16 21 51 27h6l6 2q6 0 15 -2q47 -6 59 -45q4 -14 2 -29q-4 -10 -61.5 -101t-65.5 -100q-29 -29 -72 -20q-33 4 -51 26.5t-10 49.5z" />
<glyph unicode="&#xad;" d="M420 717q0 74 4 82q14 27 45 35l10 2h19q35 -2 55 -21q14 -14 16 -25.5t2 -72.5q0 -70 -6 -82q-12 -20 -35 -31q-10 -4 -34 -4q-27 0 -37 4q-23 10 -35 31q-4 8 -4 82zM770 717q0 74 4 82q14 27 45 35l10 2h19q35 -2 55 -21q14 -14 16.5 -25.5t2.5 -72.5q0 -70 -7 -82 q-12 -20 -34 -31q-10 -4 -35 -4q-27 0 -37 4q-23 10 -35 31q-4 8 -4 82z" />
<glyph unicode="&#xaf;" d="M276 1110q-4 72 9 86q18 27 57 30t64 -20q14 -12 17 -25.5t5 -64.5q23 -338 43 -563q16 -207 64 -301q23 -49 47 -74l12 -12v522l2 522l4 9q8 18 27 26l16 6q29 10 62 -2q23 -6 36 -30l7 -9v-522l2 -520l10 12q78 88 102 305q29 240 49 645q2 45 7 56q16 35 59 40t72 -22 q14 -14 16 -25.5t0 -58.5q-20 -399 -49 -643q-27 -238 -119 -354q-63 -78 -137 -100l-12 -3v-73q0 -61 -2.5 -74.5t-12.5 -24.5q-23 -27 -63 -26q-39 0 -62 26q-10 10 -12 23.5t-2 75.5q0 72 -4 73q-86 25 -148 103q-88 111 -116 334q-27 217 -50 653z" />
<glyph unicode="&#xb4;" d="M244 78q0 8 176 647q178 639 184 645q10 17 37 27q29 10 64 -2q25 -8 34 -27q6 -14 181 -641q176 -631 176 -647q0 -27 -27 -45q-18 -12 -53 -13.5t-350 -1.5l-367 3l-12 4q-39 16 -43 51zM416 143h254q254 0 254 4q-2 3 -125 447q-125 451 -125 453q-4 8 -6 4l-17 -58 q-14 -57 -48 -178t-60 -221z" />
<glyph unicode="&#xb8;" d="M307 1016q-10 20 0 43q4 10 157.5 163.5t164.5 157.5q12 6 20 6q16 4 39 3q18 -4 41 -23.5t145 -142.5q152 -152 158 -164q12 -20 0 -45q-8 -20 -41 -33q-45 -14 -78 8q-4 2 -86 84l-79 78v-539q0 -541 -3 -546q-10 -27 -43 -41q-31 -8 -63 0q-33 14 -43 41q-2 6 -2 546 v541l-80 -80l-88 -84q-29 -20 -66.5 -11t-52.5 38z" />
<glyph unicode="&#xbb;" d="M188 1794q-4 16 0 39q20 27 33 31q2 0 9.5 3t9.5 5q49 10 77.5 -18.5t180.5 -196.5q172 -184 176 -184q35 35 176 194q176 190 186 197q20 10 49 10q35 -4 55.5 -25.5t12.5 -48.5q-2 -10 -213 -323q-174 -262 -196.5 -294t-43.5 -38q-49 -18 -86 14q-6 6 -213.5 315.5 t-212.5 319.5z" />
<glyph unicode="&#x2c6;" d="M193 724.5q0 66.5 2 98.5q23 223 112 377q123 205 320 230h12h21.5h19.5q61 0 108 -19q106 -35 189.5 -134t126.5 -243q33 -117 41 -211q2 -33 2 -99.5t-2 -96.5q-23 -188 -92 -330q-66 -137 -165.5 -210t-218 -73t-218 73t-164.5 210q-70 141 -92 330q-2 31 -2 97.5z M360 901q-57 -301 70 -561q74 -158 186 -195q84 -27 170 33q41 35 70 72q76 104 113 256q37 150 22.5 311.5t-76.5 288.5q-81 168 -198 197q-33 8 -80 4q-72 -16 -125 -74q-115 -117 -152 -332zM481 700q-10 25 3 49.5t46 32.5q6 2 144 2q117 -2 132 -3t32 -13 q27 -16 26.5 -45t-26.5 -45q-16 -12 -31.5 -13t-128.5 -3q-145 0 -164 8q-20 10 -33 30z" />
<glyph unicode="&#x2dc;" d="M246 81.5q0 16.5 4 24.5q16 29 53 35l12 2l17 78q18 76 54 231.5t68.5 299t69.5 299t56 233.5l18 78q12 27 43 35q29 10 64 -2q31 -12 38 -37q4 -6 142 -610l141 -603l12 -4q16 -4 21 -6q18 -8 33 -31q10 -23 0 -45q-14 -23 -33 -31t-96 -8q-80 0 -98.5 8.5t-33.5 30.5 q-12 23 0 45q8 20 33 31q6 4 6 6q-4 4 -100 430q-8 35 -18.5 77t-17.5 73t-15 65.5t-13.5 60t-11.5 51.5t-10 42t-7 30.5t-5 20.5l-2 6q-45 -195 -101 -430l-100 -430l12 -6q31 -16 31 -49q0 -45 -53 -57q-12 -4 -81 -5.5t-79 3.5q-33 8 -49 34q-4 8 -4 24.5z" />
<glyph unicode="&#x2000;" horiz-adv-x="937" />
<glyph unicode="&#x2001;" horiz-adv-x="1874" />
<glyph unicode="&#x2002;" horiz-adv-x="937" />
<glyph unicode="&#x2003;" horiz-adv-x="1874" />
<glyph unicode="&#x2004;" horiz-adv-x="624" />
<glyph unicode="&#x2005;" horiz-adv-x="468" />
<glyph unicode="&#x2006;" horiz-adv-x="312" />
<glyph unicode="&#x2007;" horiz-adv-x="312" />
<glyph unicode="&#x2008;" horiz-adv-x="234" />
<glyph unicode="&#x2009;" horiz-adv-x="374" />
<glyph unicode="&#x200a;" horiz-adv-x="104" />
<glyph unicode="&#x2010;" d="M184 775q0 42 4 50q15 29 52 39q8 2 430 2q338 0 387 -1t65 -11q18 -10 29 -29q4 -12 4 -49q0 -39 -4 -51q-10 -18 -29 -29q-16 -10 -65 -11t-387 -1q-332 0 -382 1t-67 9q-20 6 -33 31q-4 8 -4 50z" />
<glyph unicode="&#x2011;" d="M184 775q0 42 4 50q15 29 52 39q8 2 430 2q338 0 387 -1t65 -11q18 -10 29 -29q4 -12 4 -49q0 -39 -4 -51q-10 -18 -29 -29q-16 -10 -65 -11t-387 -1q-332 0 -382 1t-67 9q-20 6 -33 31q-4 8 -4 50z" />
<glyph unicode="&#x2012;" d="M184 775q0 42 4 50q15 29 52 39q8 2 430 2q338 0 387 -1t65 -11q18 -10 29 -29q4 -12 4 -49q0 -39 -4 -51q-10 -18 -29 -29q-16 -10 -65 -11t-387 -1q-332 0 -382 1t-67 9q-20 6 -33 31q-4 8 -4 50z" />
<glyph unicode="&#x2013;" d="M186 1800q0 33 15 47q16 19 39 25q53 10 82 -23q16 -16 18 -45q6 -61 37 -121q74 -150 233 -182q18 -4 60 -4q57 0 100 14q72 25 129 82q43 43 64 90q29 51 36 121q4 33 21 49q33 29 79 19t54 -49q2 -10 0 -37q-14 -106 -74 -197q-127 -188 -354 -213q-172 -20 -318.5 72 t-199.5 252q-18 59 -21 100z" />
<glyph unicode="&#x2014;" d="M215 1194q0 43 53 59q8 2 402 2q315 0 362 -1t64 -11q35 -25 28 -59q-6 -31 -43 -45l-10 -4l-393 -2q-397 0 -406 2q-57 14 -57 59z" />
<glyph unicode="&#x2018;" d="M483 1462q0 27 15 41q14 19 41 25q55 12 84 -25q2 -4 63 -96q57 -96 59 -102q6 -20 -7 -40t-40 -28q-51 -16 -88 18q-6 6 -108 168q-14 23 -19 39z" />
<glyph unicode="&#x2019;" d="M518 1468q0 23 19 41q11 11 34 19q6 2 103 2q88 0 104 -6q37 -14 43 -45q2 -6 -18 -295q-18 -291 -23 -299q-4 -37 -43 -49q-10 -4 -59 -7q-66 0 -84 11q-25 12 -33 34q-2 6 -22.5 292t-20.5 302z" />
<glyph unicode="&#x201a;" d="M594 1208q0 100 2 105q8 37 61 47q37 8 66 -14q18 -14 22 -33q2 -4 3 -105q0 -92 -5 -104q-25 -49 -86 -39q-27 2 -45 20q-14 14 -15 25.5t-3 97.5z" />
<glyph unicode="&#x201c;" d="M330 944q-10 25 3 49.5t46 32.5q12 2 205.5 2t208.5 -2q31 -10 47 -35l6 -8v-461v-461l-6 -10q-20 -37 -69.5 -37t-72.5 37l-4 10l-2 422v422h-151q-160 0 -179 8q-20 10 -32 31z" />
<glyph unicode="&#x201d;" d="M270.5 -243.5q10.5 24.5 40.5 36.5q27 10 95 4q106 -10 141 4q102 35 125 160q8 37 8 508v436h-121q-117 0 -131 6q-12 4 -20 13q-41 29 -17 67q12 27 45 33q12 4 172 4t172 -2q31 -10 47 -35l7 -8v-494q0 -467 -5 -520q-6 -47 -22 -88q-14 -45 -39 -76 q-92 -119 -240 -135q-61 -4 -120 2q-6 2 -24.5 3t-27.5 1q-45 2 -63 17q-10 6 -17 16q-16 23 -5.5 47.5z" />
<glyph unicode="&#x201e;" d="M483 1290v10q1 48 58 58q16 4 32 2q27 -4 45 -23q14 -14 66 -100q49 -74 57.5 -90.5t3.5 -32.5q-10 -45 -67 -51q-43 -4 -68 24q-6 6 -62 95.5t-63 99.5z" />
<glyph unicode="&#x202f;" horiz-adv-x="374" />
<glyph unicode="&#x2039;" d="M549 696v62v63l4 8q16 25 47 35q10 2 69.5 2t69.5 -2q23 -8 35 -20q14 -12 16.5 -22.5t2.5 -63.5t-2.5 -63.5t-16.5 -22.5q-12 -12 -35 -21q-12 -4 -69.5 -4t-67.5 4q-33 8 -49 35zM596 51v414l4 8q16 25 47 35q31 4 55 -2q37 -16 43 -43q2 -4 3 -418q0 -403 -5 -416 q-25 -49 -88 -39q-41 6 -57 39q-2 6 -2 422z" />
<glyph unicode="&#x203a;" d="M307 8q14 82 72 154q37 43 100 94q88 74 107 123l8 16v101q0 96 4 108q18 33 59 39q37 8 66 -14q14 -10 22 -33q2 -4 3 -109q-2 -104 -7 -118q-16 -55 -53 -103q-31 -39 -94 -90q-100 -84 -123 -141q-31 -76 -8 -168q12 -57 65 -103q35 -27 82 -43q76 -20 156 -0.5 t125 66.5q51 61 51 141q2 37 21 54q29 27 70.5 20.5t58.5 -39.5q4 -10 4 -39q0 -127 -92 -219q-72 -74 -195 -102q-96 -23 -197.5 -6.5t-173.5 67.5q-47 33 -80 80q-39 55 -51 123q-12 74 0 141zM549 936v61q0 55 2 64.5t14 21.5q15 13 31 17q10 4 78 4q59 0 76 -6 q29 -12 38 -33q4 -8 5 -68q0 -61 -5 -69q-10 -20 -38 -33q-12 -4 -80 -4t-80 4q-25 10 -37 31z" />
<glyph unicode="&#x205f;" horiz-adv-x="468" />
<glyph unicode="&#x25fc;" horiz-adv-x="1054" d="M0 0v1055h1055v-1055h-1055z" />
<glyph unicode="&#xfb01;" d="M102 -27q6 10 95 115q88 102 88 107l-9 12q-59 84 -77 199q-31 147 6 294q27 115 98.5 203t173.5 129q86 35 195 35q53 0 65 -2q115 -16 197 -68l20 -12q35 41 78 90q59 70 75 85.5t32 21.5q41 14 78 -11q18 -14 23 -35.5t-5 -37.5q-8 -8 -92 -111l-88 -102l14 -21 q33 -47 53 -112q66 -199 6 -408q-35 -119 -118.5 -203t-198.5 -114q-231 -59 -408 55l-16 12l-6 -6q-2 -6 -76 -90q-76 -86 -80 -90q-41 -33 -90 -6q-53 25 -33 71zM340 557q-4 -92 18 -172q14 -51 25 -68q0 -2 7 5.5t36 40t72 83t129 152.5q240 283 235 287q-55 45 -131 55 q-49 8 -100 4q-121 -16 -193 -96q-66 -78 -86 -184q-10 -45 -12 -107zM475 197q0 -4 47 -31q31 -16 80 -29q23 -4 70 -4q45 0 67 4q41 10 78 29q41 20 74 53q84 84 106 236q2 25 2 78t-2 79q-8 68 -20 103q-8 25 -14 37l-9 14l-239 -283q-53 -66 -116.5 -140.5t-94.5 -109.5 z" />
<glyph unicode="&#xfb02;" d="M-152 82q0 10 164 641q164 633 166 637q10 25 43 37q10 4 103 4q88 0 100 -6l10 -4h473q475 0 486 -2q33 -8 46 -33t1 -49q-8 -20 -43 -35q-12 -4 -459 -4h-451l60 -232l59 -229h387q389 0 400 -2q53 -14 53 -59.5t-53 -59.5q-10 -2 -383 -2q-371 0 -371 -2t68 -260 l67 -256h303q305 0 316 -2q53 -16 53 -59.5t-53 -59.5q-10 -2 -314 -2h-301l-10 -8q-29 -18 -64.5 -13t-52.5 27q-8 14 -61 215l-45 182h-226h-223l-43 -170q-55 -215 -63 -225q-12 -18 -40 -26.5t-52 0.5q-49 16 -50 57zM129 573q0 -4 193 -4q190 0 190 4q-2 3 -92 355 l-92 350h-6q-8 0 -9 -2q-2 -2 -92 -350q-90 -350 -92 -353z" />
<glyph unicode="&#xfb03;" d="M-209 724.5q0 66.5 2 98.5q23 223 113 377q122 205 319 230h12.5h21.5h20q61 0 108 -19q109 -35 195 -139l12 -17v43q0 43 4 54q12 25 51 37q10 4 370.5 4t373.5 -4q45 -12 52 -51.5t-34 -59.5q-16 -8 -56 -9t-290 -1h-317v-230v-231h272h272l11 -6q27 -10 36 -31 q12 -23 2 -46.5t-38 -33.5l-11 -4l-272 -2h-272v-260v-258h317q317 0 328 -2q53 -16 53 -59.5t-53 -59.5q-12 -4 -373 -4t-371 4q-39 12 -51 39q-4 8 -4 61v52l-16 -21q-45 -53 -78 -78q-106 -84 -232 -84q-119 0 -218 73t-165 210q-70 141 -92 330q-2 31 -2 97.5zM-41 901 q-57 -301 70 -561q74 -158 186 -195q84 -27 170 33q41 35 70 72q76 104 112 256q37 150 22.5 311.5t-75.5 288.5q-82 168 -199 197q-33 8 -79 4q-72 -16 -125 -74q-115 -117 -152 -332z" />
<glyph unicode="&#xfb04;" d="M135 -25q2 4 86 146l84 137l-16 31q-74 145 -94 338q-2 31 -2 97.5t2 98.5q16 172 77.5 307.5t155.5 210.5q76 63 172 84q23 4 70 4.5t71 -4.5q106 -25 187 -96l14 -12q2 0 62 100q57 96 67 107q14 18 43 22q16 2 31 0q41 -6 57 -37q10 -23 2 -41q0 -2 -12 -20t-32.5 -54 t-39.5 -69l-82 -133l17 -33q72 -141 90 -336q2 -33 2 -99.5t-2 -96.5q-23 -188 -92 -330q-66 -137 -165.5 -210t-217.5 -73q-141 0 -258 107l-13 10q-4 0 -55 -92q-74 -119 -82 -125q-27 -23 -66.5 -15.5t-56.5 35.5q-12 18 -4 41zM352 848q-29 -217 39 -412l8 -22l234 387 l233 387l-10 12q-23 33 -65 66q-29 25 -74 37q-33 8 -80 4q-72 -16 -125 -74q-131 -131 -160 -385zM477 262q-2 -6 25.5 -36.5t50.5 -47.5q117 -86 233 0q55 41 99 115q70 117 96 276q36 222 -27 437l-10 28l-117 -190q-115 -193 -231.5 -386.5t-118.5 -195.5z" />
</font>
</defs>
</svg>
